<svg width="24" height="25" viewBox="0 0 24 25" fill="none" xmlns="http://www.w3.org/2000/svg">
<g clip-path="url(#clip0_1_88)">
<path fill-rule="evenodd" clip-rule="evenodd" d="M21.75 16.25H21V7.25C21 6.00736 19.9926 5 18.75 5H5.25C4.00736 5 3 6.00736 3 7.25V16.25H2.25C1.83579 16.25 1.5 16.5858 1.5 17V18.5C1.5 19.7426 2.50736 20.75 3.75 20.75H20.25C21.4926 20.75 22.5 19.7426 22.5 18.5V17C22.5 16.5858 22.1642 16.25 21.75 16.25ZM4.5 7.25C4.5 6.83579 4.83579 6.5 5.25 6.5H18.75C19.1642 6.5 19.5 6.83579 19.5 7.25V16.25H4.5V7.25ZM21 18.5C21 18.9142 20.6642 19.25 20.25 19.25H3.75C3.33579 19.25 3 18.9142 3 18.5V17.75H21V18.5ZM14.25 8.75C14.25 9.16421 13.9142 9.5 13.5 9.5H10.5C10.0858 9.5 9.75 9.16421 9.75 8.75C9.75 8.33579 10.0858 8 10.5 8H13.5C13.9142 8 14.25 8.33579 14.25 8.75Z" fill="#0D1C0D"/>
</g>
<defs>
<clipPath id="clip0_1_88">
<rect width="24" height="24" fill="white" transform="translate(0 0.5)"/>
</clipPath>
</defs>
</svg>
