<svg width="24" height="25" viewBox="0 0 24 25" fill="none" xmlns="http://www.w3.org/2000/svg">
<g clip-path="url(#clip0_1_112)">
<path fill-rule="evenodd" clip-rule="evenodd" d="M18.75 4.25H5.25C4.42157 4.25 3.75 4.92157 3.75 5.75V19.25C3.75 20.0784 4.42157 20.75 5.25 20.75H18.75C19.5784 20.75 20.25 20.0784 20.25 19.25V5.75C20.25 4.92157 19.5784 4.25 18.75 4.25ZM18.75 11.75H12.75V5.75H18.75V11.75ZM11.25 5.75V11.75H5.25V5.75H11.25ZM5.25 13.25H11.25V19.25H5.25V13.25ZM18.75 19.25H12.75V13.25H18.75V19.25Z" fill="#0D1C0D"/>
</g>
<defs>
<clipPath id="clip0_1_112">
<rect width="24" height="24" fill="white" transform="translate(0 0.5)"/>
</clipPath>
</defs>
</svg>
