<svg width="18" height="21" viewBox="0 0 18 21" fill="none" xmlns="http://www.w3.org/2000/svg">
<path fill-rule="evenodd" clip-rule="evenodd" d="M16.5 0.75H3.75C2.09315 0.75 0.75 2.09315 0.75 3.75V19.5C0.75 19.9142 1.08579 20.25 1.5 20.25H15C15.4142 20.25 15.75 19.9142 15.75 19.5C15.75 19.0858 15.4142 18.75 15 18.75H2.25C2.25 17.9216 2.92157 17.25 3.75 17.25H16.5C16.9142 17.25 17.25 16.9142 17.25 16.5V1.5C17.25 1.08579 16.9142 0.75 16.5 0.75ZM15.75 15.75H3.75C3.22326 15.7493 2.70572 15.888 2.25 16.1522V3.75C2.25 2.92157 2.92157 2.25 3.75 2.25H15.75V15.75Z" fill="#0D1C0D"/>
</svg>
