<svg width="22" height="19" viewBox="0 0 22 19" fill="none" xmlns="http://www.w3.org/2000/svg">
<path fill-rule="evenodd" clip-rule="evenodd" d="M19.055 17.2456C19.239 17.4433 19.3026 17.7247 19.2213 17.9823C19.1401 18.2399 18.9266 18.4339 18.6624 18.4902C18.3983 18.5465 18.1242 18.4564 17.945 18.2544L13.07 12.8966C11.2782 12.1856 9.24704 12.4417 7.68781 13.5753C7.47154 13.7388 7.1839 13.7728 6.93548 13.6643C6.68705 13.5558 6.51649 13.3217 6.48938 13.052C6.46227 12.7822 6.58282 12.5189 6.80469 12.3631C8.02201 11.473 9.49199 10.9954 11 11C11.12 11 11.2391 11 11.3581 11.0094L8.83438 8.23344C7.33206 8.56302 5.92457 9.23054 4.71875 10.1853C4.56257 10.3097 4.36325 10.3667 4.16493 10.3436C3.96661 10.3206 3.78567 10.2194 3.66219 10.0625C3.4048 9.73876 3.45807 9.26777 3.78125 9.00969C4.94366 8.09025 6.27083 7.40105 7.69156 6.97906L5.50344 4.56875C4.13783 5.1234 2.86427 5.88203 1.72625 6.81875C1.40523 7.08178 0.931776 7.03477 0.66875 6.71375C0.405724 6.39273 0.452735 5.91928 0.77375 5.65625C1.88824 4.74134 3.12049 3.98017 4.4375 3.39313L2.945 1.75437C2.76097 1.55668 2.69744 1.27531 2.77869 1.01773C2.85994 0.760148 3.07341 0.566147 3.33757 0.50983C3.60173 0.453513 3.87576 0.543579 4.055 0.745625L19.055 17.2456ZM11 15.5C10.3787 15.5 9.875 16.0037 9.875 16.625C9.875 17.2463 10.3787 17.75 11 17.75C11.6213 17.75 12.125 17.2463 12.125 16.625C12.125 16.0037 11.6213 15.5 11 15.5ZM21.2262 5.65625C17.7891 2.84129 13.3442 1.5663 8.9375 2.13125C8.66673 2.15889 8.43218 2.33105 8.32466 2.58109C8.21714 2.83113 8.25352 3.11979 8.41971 3.33534C8.58591 3.55088 8.85584 3.65947 9.125 3.61906C9.74686 3.53982 10.3731 3.50005 11 3.5C14.3813 3.50185 17.6579 4.67342 20.2738 6.81594C20.594 7.07896 21.0668 7.03258 21.3298 6.71234C21.5929 6.39211 21.5465 5.91928 21.2262 5.65625ZM17.2812 10.1853C17.4371 10.3089 17.6357 10.3655 17.8334 10.3426C18.031 10.3198 18.2114 10.2194 18.335 10.0634C18.4586 9.90755 18.5152 9.70894 18.4923 9.51132C18.4695 9.31369 18.369 9.13325 18.2131 9.00969C16.7947 7.88714 15.1342 7.11037 13.3634 6.74094C13.0981 6.67993 12.8206 6.76748 12.6383 6.96968C12.456 7.17188 12.3976 7.45698 12.4857 7.71456C12.5738 7.97215 12.7946 8.16177 13.0625 8.21C14.603 8.53199 16.0474 9.20829 17.2812 10.1853Z" fill="#0D1C0D"/>
</svg>
