<svg width="20" height="21" viewBox="0 0 20 21" fill="none" xmlns="http://www.w3.org/2000/svg">
    <path fill-rule="evenodd" clip-rule="evenodd" d="M11.125 15.375C11.125 15.9963 10.6213 16.5 10 16.5C9.37868 16.5 8.875 15.9963 8.875 15.375C8.875 14.7537 9.37868 14.25 10 14.25C10.6213 14.25 11.125 14.7537 11.125 15.375ZM10 5.25C7.93187 5.25 6.25 6.76406 6.25 8.625V9C6.25 9.41421 6.58579 9.75 7 9.75C7.41421 9.75 7.75 9.41421 7.75 9V8.625C7.75 7.59375 8.75969 6.75 10 6.75C11.2403 6.75 12.25 7.59375 12.25 8.625C12.25 9.65625 11.2403 10.5 10 10.5C9.58579 10.5 9.25 10.8358 9.25 11.25V12C9.25 12.4142 9.58579 12.75 10 12.75C10.4142 12.75 10.75 12.4142 10.75 12V11.9325C12.46 11.6184 13.75 10.2544 13.75 8.625C13.75 6.76406 12.0681 5.25 10 5.25ZM19.75 10.5C19.75 15.8848 15.3848 20.25 10 20.25C4.61522 20.25 0.25 15.8848 0.25 10.5C0.25 5.11522 4.61522 0.75 10 0.75C15.3824 0.755684 19.7443 5.11758 19.75 10.5ZM18.25 10.5C18.25 5.94365 14.5563 2.25 10 2.25C5.44365 2.25 1.75 5.94365 1.75 10.5C1.75 15.0563 5.44365 18.75 10 18.75C14.5542 18.7448 18.2448 15.0542 18.25 10.5Z" fill="#0D1C0D"/>
</svg>
