<svg width="20" height="21" viewBox="0 0 20 21" fill="none" xmlns="http://www.w3.org/2000/svg">
<path fill-rule="evenodd" clip-rule="evenodd" d="M10 0.75C6.57597 0.749253 3.40249 2.54466 1.63954 5.47997C-0.123413 8.41527 -0.217421 12.0602 1.39188 15.0825L0.327812 18.2747C0.148045 18.8137 0.288308 19.4081 0.69011 19.8099C1.09191 20.2117 1.68626 20.352 2.22531 20.1722L5.4175 19.1081C8.99938 21.0133 13.3867 20.5013 16.4336 17.8225C19.4806 15.1438 20.5503 10.8582 19.1197 7.06183C17.689 3.26543 14.057 0.751664 10 0.75ZM10 18.75C8.54967 18.751 7.12478 18.3691 5.86938 17.6428C5.68344 17.535 5.46018 17.5121 5.25625 17.58L1.75 18.75L2.91906 15.2437C2.98723 15.0399 2.9647 14.8167 2.85719 14.6306C0.987404 11.3979 1.52233 7.3124 4.16133 4.67005C6.80034 2.02772 10.8852 1.48763 14.1202 3.35333C17.3553 5.21903 18.9336 9.02517 17.9682 12.6327C17.0028 16.2402 13.7345 18.7494 10 18.75Z" fill="#0D1C0D"/>
</svg>
